<?xml version="1.0" encoding="utf-8"?>
<!-- Generator: Adobe Illustrator 26.3.1, SVG Export Plug-In . SVG Version: 6.00 Build 0)  -->
<svg version="1.1" id="Capa_1" xmlns="http://www.w3.org/2000/svg" xmlns:xlink="http://www.w3.org/1999/xlink" x="0px" y="0px"
	 viewBox="0 0 1982.06 1259.94" style="enable-background:new 0 0 1982.06 1259.94;" xml:space="preserve">
<style type="text/css">
	.st0{fill:#FEE4C1;}
</style>
<g>
	<g>
		<path class="st0" d="M191.81,624.24h-33.83v70.78H67.74V422.39h131.85c73.9,0,116.29,35.39,116.29,97.62
			c0,39.66-15.17,69.22-43.17,86.34l53.67,88.67h-101.9L191.81,624.24z M199.59,555.78c19.44,0,30.73-12.05,30.73-33.05
			c0-20.23-11.28-31.9-30.73-31.9h-41.61v64.95H199.59z"/>
		<path class="st0" d="M634.31,558.51c0,80.89-63,140.4-149.73,140.4s-149.73-59.11-149.73-140.4c0-80.9,63-138.85,149.73-138.85
			S634.31,478.01,634.31,558.51z M427.4,558.89c0,37.34,27.23,64.95,58.35,64.95s56.01-27.61,56.01-64.95
			c0-37.34-24.89-64.17-56.01-64.17C454.24,494.72,427.4,521.56,427.4,558.89z"/>
		<path class="st0" d="M921.77,579.52c0,72.33-50.95,119.4-129.9,119.4c-79.34,0-131.85-47.06-131.85-119.4V422.39h90.23v157.13
			c0,26.84,19.44,44.33,42,44.33c22.17,0,39.28-17.11,39.28-44.33V422.39h90.23V579.52z"/>
		<path class="st0" d="M1106.72,493.55v201.47h-90.23V493.55H939.1v-71.16h245.41v71.16H1106.72z"/>
		<path class="st0" d="M1293.78,490.83v33.45h127.56v68.46h-127.56v33.84h143.9v68.44h-234.13V422.39h230.64v68.44H1293.78z"/>
		<g>
			<path class="st0" d="M1666.81,441.44l-17.89,34.62c-16.72-10.9-39.67-17.11-60.28-17.11c-52.89,0-77.39,39.66-75.84,98.39
				c14.39-25.29,40.06-38.51,74.28-38.51c54.46,0,87.51,33.84,87.51,86.72c0,56.41-37.73,91.4-95.68,91.4
				c-68.84,0-110.84-49.01-110.84-132.63c0-86.72,45.5-143.51,117.46-143.51C1612.37,420.82,1644.64,429,1666.81,441.44z
				 M1520.19,606.73c-0.39,23.72,17.11,50.56,56.39,50.56c33.06,0,55.23-19.06,55.23-52.11c0-31.12-20.23-50.18-53.29-50.18
				C1541.58,555,1519.8,578.73,1520.19,606.73z"/>
			<path class="st0" d="M1578.91,707.21c-74.69,0-121.09-54.75-121.09-142.88c0-93.4,50.13-153.75,127.71-153.75
				c28.69,0,62.56,8.61,86.3,21.93l8.63,4.85l-27.64,53.47l-9.49-6.18c-14.63-9.53-35.58-15.45-54.69-15.45
				c-18.92,0-34.02,5.65-44.87,16.79c-9.58,9.84-15.96,24.02-18.91,41.75c16.09-12.61,37.12-19.15,62.22-19.15
				c59.39,0,97.76,38.06,97.76,96.97C1684.84,667.31,1643.26,707.21,1578.91,707.21z M1585.53,431.07
				c-66.13,0-107.22,51.06-107.22,133.26c0,77.78,36.66,122.39,100.6,122.39c52.7,0,85.44-31.1,85.44-81.16
				c0-47.89-28.89-76.48-77.27-76.48c-30.79,0-52.79,11.21-65.37,33.33l-18.17,31.93l-0.97-36.73
				c-0.99-37.37,8.18-67.09,26.53-85.92c14.85-15.25,34.89-22.99,59.55-22.99c19.24,0,39.45,4.82,56.08,13.17l8.24-15.95
				C1633.06,436.88,1607.2,431.07,1585.53,431.07z M1576.58,667.54c-25.83,0-41.38-10.29-49.88-18.93
				c-10.87-11.05-16.97-26.31-16.76-41.88c-0.18-16.08,5.79-31.1,16.82-42.28c12.52-12.69,30.9-19.68,51.76-19.68
				c38.59,0,63.53,23.72,63.53,60.42C1642.06,643.06,1616.36,667.54,1576.58,667.54z M1578.52,565.25
				c-15.56,0-28.41,4.7-37.17,13.58c-7.19,7.29-11.07,17.15-10.92,27.77v0.31c-0.17,10.18,3.8,20.14,10.88,27.34
				c8.25,8.38,20.44,12.81,35.27,12.81c28.59,0,44.99-15.26,44.99-41.86C1621.57,579.8,1605.88,565.25,1578.52,565.25z"/>
		</g>
		<g>
			<path class="st0" d="M1907.34,441.44l-17.89,34.62c-16.72-10.9-39.67-17.11-60.28-17.11c-52.89,0-77.39,39.66-75.84,98.39
				c14.38-25.29,40.06-38.51,74.28-38.51c54.46,0,87.51,33.84,87.51,86.72c0,56.41-37.73,91.4-95.68,91.4
				c-68.84,0-110.84-49.01-110.84-132.63c0-86.72,45.5-143.51,117.46-143.51C1852.9,420.82,1885.17,429,1907.34,441.44z
				 M1760.72,606.73c-0.39,23.72,17.11,50.56,56.39,50.56c33.06,0,55.23-19.06,55.23-52.11c0-31.12-20.23-50.18-53.29-50.18
				C1782.11,555,1760.33,578.73,1760.72,606.73z"/>
			<path class="st0" d="M1819.44,707.21c-74.69,0-121.08-54.75-121.08-142.88c0-93.4,50.13-153.75,127.7-153.75
				c28.69,0,62.56,8.61,86.3,21.93l8.63,4.85l-27.64,53.47l-9.49-6.18c-14.63-9.53-35.58-15.45-54.69-15.45
				c-18.92,0-34.02,5.65-44.87,16.79c-9.58,9.84-15.96,24.02-18.91,41.75c16.08-12.61,37.12-19.14,62.22-19.14
				c59.39,0,97.76,38.06,97.76,96.97C1925.37,667.31,1883.79,707.21,1819.44,707.21z M1826.06,431.07
				c-66.13,0-107.21,51.06-107.21,133.26c0,77.78,36.66,122.39,100.59,122.39c52.7,0,85.44-31.1,85.44-81.16
				c0-47.89-28.88-76.48-77.27-76.48c-30.8,0-52.8,11.21-65.38,33.33l-18.17,31.95l-0.97-36.74c-0.99-37.37,8.18-67.09,26.53-85.92
				c14.85-15.25,34.89-22.99,59.55-22.99c19.24,0,39.45,4.82,56.08,13.17l8.24-15.95C1873.59,436.88,1847.73,431.07,1826.06,431.07z
				 M1817.11,667.54c-25.83,0-41.38-10.29-49.88-18.93c-10.87-11.05-16.97-26.31-16.76-41.88c-0.18-16.08,5.79-31.1,16.82-42.28
				c12.52-12.69,30.9-19.68,51.76-19.68c38.59,0,63.53,23.72,63.53,60.42C1882.59,643.06,1856.89,667.54,1817.11,667.54z
				 M1819.05,565.25c-15.56,0-28.41,4.7-37.17,13.58c-7.19,7.29-11.07,17.15-10.92,27.77v0.31c-0.17,10.18,3.8,20.14,10.88,27.34
				c8.25,8.38,20.44,12.81,35.27,12.81c28.59,0,44.99-15.26,44.99-41.86C1862.1,579.8,1846.41,565.25,1819.05,565.25z"/>
		</g>
	</g>
	<path class="st0" d="M525.64,362.45h66.3c-15.76-30-41.12-62.11-79.36-97.44l155.9-130.82c10.74,5.8,21.88,10.93,33.29,15.39
		c17.71,6.94,36.15,12.4,54.76,16.43c84.38,18.26,176.3,7.14,227.21-28.56c4.56,3.27,9.43,6.36,14.59,9.21
		c13,7.21,27.96,13.08,44.29,17.57c73.5,20.2,178.8,11.83,256.86-30.04l155.89,130.81c-38.24,35.33-63.6,67.45-79.36,97.44h66.31
		c16.01-23.74,39.42-49.2,72.54-77.13l24.77-20.9l-24.88-20.87L1319.84,79.99l-15.34-12.87l-16.93,10.83
		c-66.41,42.52-163.98,52.03-230.62,33.71c-12.04-3.3-22.89-7.54-32.12-12.66c-8.25-4.57-15.01-9.78-19.93-15.6l-0.04,0.05
		l-20.75-24.97l-20.96,24.93c-29.88,35.52-114.94,46.53-195.07,29.18c-16.02-3.47-31.66-8.08-46.43-13.86
		c-14.79-5.79-28.66-12.65-41.11-20.6l0.04-0.05l-0.19-0.12l-16.92-10.85l-15.36,12.89L453.2,243.55l-24.88,20.87l24.78,20.9
		C486.22,313.26,509.63,338.72,525.64,362.45z"/>
	<path class="st0" d="M1465.36,868.18c-2.57,9.47-5.57,18.97-9.52,28.41c-29.32,70.23-96.23,132.02-199.22,140.82
		c-189.16,16.17-229.83,42.29-272.65,81.04c-42.81-38.76-83.48-64.87-272.64-81.04l-0.11-0.02c-20.3-1.74-39.13-5.49-56.48-10.93
		c-17.29-5.42-33.17-12.5-47.63-20.92c-55.31-32.19-90.41-84.11-104.72-137.37h-56.08c15.27,71.02,60.01,141.85,133.45,184.59
		c17.92,10.42,37.51,19.18,58.74,25.83c21.18,6.63,43.93,11.2,68.23,13.28l0.1,0.01c185.45,15.85,211.23,39.68,250.3,75.81
		c6.95,6.43,3.01,2.93,8.45,7.9l18.38,16.74l18.38-16.74c5.46-4.97,1.51-1.46,8.46-7.9c39.07-36.12,64.85-59.96,250.3-75.81
		c126.42-10.81,208.83-87.35,245.17-174.37c6.7-16.04,11.74-32.62,15.32-49.35H1465.36z"/>
</g>
<g>
	<path class="st0" d="M66.49,745.57h24.2l6.54,6.54v34.45l-5.78,5.78l6.54,36.08H87.86l-6.43-35.32h-4.47v35.32H66.49V745.57z
		 M86.77,782.42v-25.95l-2.18-2.18h-7.63v30.31h7.63L86.77,782.42z"/>
	<path class="st0" d="M142.63,745.57h25.84v8.94H153.1v27.47h13.41v8.94H153.1v28.56h15.59v8.94h-26.05V745.57z"/>
	<path class="st0" d="M231.09,756.47l-2.18-2.18h-3.82l-2.18,2.18v23.33l2.18,2.18h10.24l6.54,6.54v33.36l-6.54,6.54h-16.57
		l-6.54-6.54v-17.34h10.47v12.97l2.18,2.18h4.36l2.18-2.18V793.1l-2.18-2.18h-10.25l-6.54-6.54v-32.27l6.54-6.54h16.02l6.54,6.54
		v17.44h-10.47V756.47z"/>
	<path class="st0" d="M305.22,754.29v74.13h-10.47v-74.13h-9.92v-8.72h30.3v8.72H305.22z"/>
	<path class="st0" d="M365.59,807.05l-2.07,21.37h-10.47l9.92-82.85h15.04l10.14,82.85h-10.9l-2.07-21.37H365.59z M370.39,756.36
		l-4.04,41.75h8.07L370.39,756.36z"/>
	<path class="st0" d="M455.52,828.42h-17.55l-6.54-6.54v-76.31h10.47v71.73l2.18,2.18h5.34l2.18-2.18v-71.73h10.47v76.31
		L455.52,828.42z"/>
	<path class="st0" d="M506.92,745.57h24.2l6.54,6.54v34.45l-5.78,5.78l6.54,36.08h-10.14l-6.43-35.32h-4.47v35.32h-10.47V745.57z
		 M527.2,782.42v-25.95l-2.18-2.18h-7.63v30.31h7.63L527.2,782.42z"/>
	<path class="st0" d="M594.29,807.05l-2.07,21.37h-10.47l9.92-82.85h15.04l10.14,82.85h-10.9l-2.07-21.37H594.29z M599.08,756.36
		l-4.03,41.75h8.07L599.08,756.36z"/>
	<path class="st0" d="M660.46,745.57h11.34l11.99,57.45v-57.45h9.48v82.85h-11.34l-11.99-56.58v56.58h-9.48V745.57z"/>
	<path class="st0" d="M757.25,754.29v74.13h-10.47v-74.13h-9.92v-8.72h30.3v8.72H757.25z"/>
	<path class="st0" d="M864.97,792.99V781h10.9v11.99H864.97z"/>
	<path class="st0" d="M1007.02,752.11v27.47l-6.54,6.54l6.54,6.54v29.22l-6.54,6.54h-24.2v-82.85h24.2L1007.02,752.11z
		 M996.55,779.8v-23.33l-2.18-2.18h-7.63v27.69h7.63L996.55,779.8z M986.74,790.7v28.78h7.63l2.18-2.18v-24.42l-2.18-2.18H986.74z"
		/>
	<path class="st0" d="M1062.61,807.05l-2.07,21.37h-10.47l9.92-82.85h15.04l10.14,82.85h-10.9l-2.07-21.37H1062.61z M1067.41,756.36
		l-4.04,41.75h8.07L1067.41,756.36z"/>
	<path class="st0" d="M1128.78,745.57h24.2l6.54,6.54v34.45l-5.78,5.78l6.54,36.08h-10.14l-6.43-35.32h-4.47v35.32h-10.47V745.57z
		 M1149.05,782.42v-25.95l-2.18-2.18h-7.63v30.31h7.63L1149.05,782.42z"/>
	<path class="st0" d="M1260.14,792.99V781h10.9v11.99H1260.14z"/>
	<path class="st0" d="M1371.45,745.57h23.65l6.54,6.54v36.63l-6.54,6.54h-13.19v33.14h-10.47V745.57z M1391.18,784.38v-27.91
		l-2.18-2.18h-7.08v32.27h7.08L1391.18,784.38z"/>
	<path class="st0" d="M1454.73,807.05l-2.07,21.37h-10.47l9.92-82.85h15.04l10.14,82.85h-10.9l-2.07-21.37H1454.73z M1459.53,756.36
		l-4.04,41.75h8.07L1459.53,756.36z"/>
	<path class="st0" d="M1539,756.47l-2.18-2.18h-3.82l-2.18,2.18v23.33l2.18,2.18h10.24l6.54,6.54v33.36l-6.54,6.54h-16.57
		l-6.54-6.54v-17.34h10.47v12.97l2.18,2.18h4.36l2.18-2.18V793.1l-2.18-2.18h-10.25l-6.54-6.54v-32.27l6.54-6.54h16.02l6.54,6.54
		v17.44H1539V756.47z"/>
	<path class="st0" d="M1613.14,754.29v74.13h-10.47v-74.13h-9.92v-8.72h30.3v8.72H1613.14z"/>
	<path class="st0" d="M1666.66,745.57h24.2l6.54,6.54v34.45l-5.78,5.78l6.54,36.08h-10.14l-6.43-35.32h-4.47v35.32h-10.47V745.57z
		 M1686.93,782.42v-25.95l-2.18-2.18h-7.63v30.31h7.63L1686.93,782.42z"/>
	<path class="st0" d="M1742.8,745.57h10.47v82.85h-10.47V745.57z"/>
	<path class="st0" d="M1798.05,745.57h25.84v8.94h-15.37v27.47h13.41v8.94h-13.41v28.56h15.59v8.94h-26.05V745.57z"/>
	<path class="st0" d="M1886.5,756.47l-2.18-2.18h-3.82l-2.18,2.18v23.33l2.18,2.18h10.24l6.54,6.54v33.36l-6.54,6.54h-16.57
		l-6.54-6.54v-17.34h10.47v12.97l2.18,2.18h4.36l2.18-2.18V793.1l-2.18-2.18h-10.25l-6.54-6.54v-32.27l6.54-6.54h16.02l6.54,6.54
		v17.44h-10.47V756.47z"/>
</g>
</svg>
